<?xml version="1.0" encoding="UTF-8" standalone="no"?>
<!-- Created with Inkscape (http://www.inkscape.org/) -->
<svg
   xmlns:svg="http://www.w3.org/2000/svg"
   xmlns="http://www.w3.org/2000/svg"
   version="1.0"
   width="655.02802"
   height="655.07428"
   id="svg6488">
  <defs
     id="defs6490" />
  <g
     transform="translate(-72.59447,108.7387)"
     id="layer1">
    <g
       id="g6882">
      <path
         d="M 72.594468,-108.73874 L 727.62246,-108.73874 L 727.62246,546.33554 L 72.594468,546.33554 L 72.594468,-108.73874 z "
         style="fill:#f7dc1f;fill-rule:nonzero;stroke:none"
         id="path6823" />
      <path
         d="M 204.97552,172.55143 L 204.97552,147.50054 L 128.62129,147.50054 L 128.62129,173.10608 L 168.09261,173.10608 L 125.0163,260.18302 L 125.0163,288.93148 L 203.03432,288.93148 L 203.03432,263.14111 L 160.7899,263.14111 L 204.97552,172.55143"
         style="fill:black;fill-rule:nonzero;stroke:none"
         id="path6825" />
      <path
         d="M 257.57299,240.40123 L 250.64009,189.00548 L 243.61479,240.40123 L 257.57299,240.40123 z M 295.84244,288.93148 L 264.13606,288.93148 L 260.90073,265.0823 L 240.28704,265.0823 L 237.05171,288.93148 L 205.34518,288.93148 L 231.6902,147.50054 L 269.49757,147.50054 L 295.84244,288.93148"
         style="fill:black;fill-rule:nonzero;stroke:none"
         id="path6827" />
      <path
         d="M 353.61659,147.50054 L 385.41538,147.50054 L 385.41538,288.93148 L 350.65851,288.93148 L 330.7843,217.66136 L 330.7843,288.93148 L 299.07792,288.93148 L 299.07792,147.50054 L 334.85152,147.50054 L 353.61659,214.79585 L 353.61659,147.50054"
         style="fill:black;fill-rule:nonzero;stroke:none"
         id="path6829" />
      <path
         d="M 432.4665,267.8554 C 425.34878,267.8554 423.86982,263.51077 423.86982,259.07372 C 423.86982,252.78805 423.86982,147.50054 423.86982,147.50054 L 392.5331,147.50054 L 392.5331,259.07372 C 392.5331,280.9817 413.60903,291.42732 432.4665,291.42732 C 451.23157,291.42732 472.30749,280.9817 472.30749,259.07372 L 472.30749,147.50054 L 440.97093,147.50054 C 440.97093,147.50054 440.97093,252.78805 440.97093,259.07372 C 440.97093,263.51077 439.49181,267.8554 432.4665,267.8554"
         style="fill:black;fill-rule:nonzero;stroke:none"
         id="path6831" />
      <path
         d="M 525.73701,179.02209 C 525.73701,186.0474 525.73701,193.90476 525.73701,193.90476 L 554.39289,193.90476 L 554.39289,176.15642 C 554.39289,163.30752 544.22467,145.74418 514.64432,145.74418 C 489.22377,145.74418 477.02194,158.03858 477.02194,182.44225 C 477.02194,200.83749 487.83722,211.1907 498.28269,220.9891 C 512.05606,233.93058 526.10667,243.17433 526.10667,257.40993 C 526.10667,263.69576 522.77893,267.20833 515.93845,267.20833 C 510.48452,267.20833 505.86265,263.51077 505.86265,256.76286 C 505.86265,248.35101 505.86265,239.56934 505.86265,239.56934 L 474.98817,239.56934 L 474.98817,256.1158 C 474.98817,279.59515 491.71962,291.8894 521.20739,291.8894 C 544.13226,291.8894 556.42651,277.56154 556.42651,256.57803 C 556.42651,235.22471 542.74555,220.06479 529.61941,208.04779 C 518.06448,197.50975 506.78712,190.29961 506.78712,178.92967 C 506.78712,173.93798 510.20728,169.40852 516.03087,169.40852 C 521.11498,169.40852 525.73701,173.1985 525.73701,179.02209"
         style="fill:black;fill-rule:nonzero;stroke:none"
         id="path6833" />
      <path
         d="M 610.13327,179.02209 C 610.13327,186.0474 610.13327,193.90476 610.13327,193.90476 L 638.78915,193.90476 L 638.78915,176.15642 C 638.78915,163.30752 628.71335,145.74418 599.04058,145.74418 C 573.71245,145.74418 561.51062,158.03858 561.51062,182.44225 C 561.51062,200.83749 572.23349,211.1907 582.67895,220.9891 C 596.54474,233.93058 610.50294,243.17433 610.50294,257.40993 C 610.50294,263.69576 607.26761,267.20833 600.42729,267.20833 C 594.88094,267.20833 590.25891,263.51077 590.25891,256.76286 C 590.25891,248.35101 590.25891,239.56934 590.25891,239.56934 L 559.477,239.56934 L 559.477,256.1158 C 559.477,279.59515 576.11588,291.8894 605.69623,291.8894 C 628.62093,291.8894 640.91518,277.56154 640.91518,256.57803 C 640.91518,235.22471 627.23439,220.06479 614.10808,208.04779 C 602.55332,197.50975 591.2758,190.29961 591.2758,178.92967 C 591.2758,173.93798 594.69595,169.40852 600.5197,169.40852 C 605.5114,169.40852 610.13327,173.1985 610.13327,179.02209"
         style="fill:black;fill-rule:nonzero;stroke:none"
         id="path6835" />
      <path
         d="M 643.2262,147.50054 L 675.3024,147.50054 L 675.3024,288.93148 L 643.2262,288.93148 L 643.2262,147.50054 z "
         style="fill:black;fill-rule:nonzero;stroke:none"
         id="path6837" />
    </g>
  </g>
</svg>
